<?xml version="1.0" encoding="UTF-8"?>
<svg width="50px" height="79px" viewBox="0 0 50 79" version="1.1" xmlns="http://www.w3.org/2000/svg" xmlns:xlink="http://www.w3.org/1999/xlink">
    <!-- Generator: sketchtool 50.2 (55047) - http://www.bohemiancoding.com/sketch -->
    <title>D4770499-1541-4A19-A078-B3B516C9B1EB</title>
    <desc>Created with sketchtool.</desc>
    <defs></defs>
    <g id="Symbols" stroke="none" stroke-width="1" fill="none" fill-rule="evenodd">
        <g id="footer-1440-MC" transform="translate(-1053.000000, -16.000000)">
            <g id="footer">
                <g id="Group-4" transform="translate(90.000000, 4.000000)">
                    <g id="Group-3" transform="translate(959.000000, 0.000000)">
                        <g id="Group" transform="translate(0.000000, 12.000000)">
                            <g transform="translate(4.000000, 0.000000)">
                                <path d="M43.1113161,104 L6.88868392,104 C3.09966503,104 0,100.890205 0,97.089345 L0,6.91065496 C0,3.10979473 3.09966503,0 6.88868392,0 L43.1113161,0 C46.900335,0 50,3.10979473 50,6.91065496 L50,97.089345 C50,100.890205 46.900335,104 43.1113161,104" id="Fill-7008" fill="#343434"></path>
                                <path d="M2.38095238,13.7022901 L2.38095238,64.3053435 L47.6190476,19.6089495 L47.6190476,13.7022901 C47.6190476,13.1500053 47.1713324,12.7022901 46.6190476,12.7022901 L3.38095238,12.7022901 C2.82866763,12.7022901 2.38095238,13.1500053 2.38095238,13.7022901 Z" id="Fill-7009" fill="#FFFFFF"></path>
                                <polyline id="Fill-7010" fill="#FFFFFF" points="2.38095238 64.1876806 2.38095238 91.2977099 47.6190476 91.2977099 47.6190476 19.0534351 2.38095238 64.1876806"></polyline>
                                <path d="M29.0212756,7.14503817 L20.9787244,7.14503817 C20.7896323,7.14503817 20.6349206,6.96644061 20.6349206,6.74780766 C20.6349206,6.5297426 20.7896323,6.35114504 20.9787244,6.35114504 L29.0212756,6.35114504 C29.2103677,6.35114504 29.3650794,6.5297426 29.3650794,6.74780766 C29.3650794,6.96644061 29.2103677,7.14503817 29.0212756,7.14503817" id="Fill-7012" fill="#F0EDE6"></path>
                                <path d="M25.3968254,3.57251908 C25.3968254,3.35314851 25.2193251,3.17557252 25.0010201,3.17557252 C24.7806749,3.17557252 24.6031746,3.35314851 24.6031746,3.57251908 C24.6031746,3.79168578 24.7806749,3.96946565 25.0010201,3.96946565 C25.2193251,3.96946565 25.3968254,3.79168578 25.3968254,3.57251908" id="Fill-7013" fill="#F0EDE6"></path>
                                <path d="M17.4603175,6.35103461 C17.4603175,5.91262096 17.1048855,5.55725191 16.6677705,5.55725191 C16.2284478,5.55725191 15.8730159,5.91262096 15.8730159,6.35103461 C15.8730159,6.78966912 16.2284478,7.14503817 16.6677705,7.14503817 C17.1048855,7.14503817 17.4603175,6.78966912 17.4603175,6.35103461" id="Fill-7014" fill="#F0EDE6"></path>
                            </g>
                        </g>
                    </g>
                </g>
            </g>
        </g>
    </g>
</svg>