<?xml version="1.0" encoding="UTF-8"?>
<svg width="50px" height="50px" viewBox="0 0 50 50" version="1.1" xmlns="http://www.w3.org/2000/svg" xmlns:xlink="http://www.w3.org/1999/xlink">
    <!-- Generator: Sketch 51.2 (57519) - http://www.bohemiancoding.com/sketch -->
    <title>Group 7</title>
    <desc>Created with Sketch.</desc>
    <defs>
        <circle id="path-1" cx="21" cy="21" r="21"></circle>
    </defs>
    <g id="PDP" stroke="none" stroke-width="1" fill="none" fill-rule="evenodd">
        <g transform="translate(-963.000000, -4128.000000)" id="footer-1440-MC">
            <g transform="translate(0.000000, 3631.000000)">
                <g id="footer">
                    <g id="footer-linha3" transform="translate(0.000000, 462.000000)">
                        <g id="centauro-redes" transform="translate(569.000000, 39.000000)">
                            <g id="social" transform="translate(233.000000, 0.000000)">
                                <g id="Page-1">
                                    <g id="Group-7" transform="translate(165.000000, 0.000000)">
                                        <g id="Oval">
                                            <circle stroke="#7C051F" stroke-width="4" fill="#7C051F" fill-rule="evenodd" cx="21" cy="21" r="23"></circle>
                                            <circle stroke="#BE0F34" stroke-width="3" cx="21" cy="21" r="22.5"></circle>
                                        </g>
                                        <g id="Page-1" transform="translate(9.000000, 9.000000)" fill="#FFFFFF">
                                            <path d="M11.9752421,0.500614737 C8.74762105,0.500614737 8.34290526,0.514256842 7.07570526,0.572362105 C5.81052632,0.629962105 4.94652632,0.831056842 4.19065263,1.12461474 C3.40951579,1.42827789 2.74661053,1.83450947 2.08623158,2.49539368 C1.42534737,3.15577263 1.01911579,3.81867789 0.715452632,4.60032 C0.421389474,5.35619368 0.2208,6.21968842 0.1632,7.48486737 C0.105094737,8.75257263 0.0914526316,9.15678316 0.0914526316,12.3844042 C0.0914526316,15.6120253 0.105094737,16.0162358 0.1632,17.2839411 C0.2208,18.54912 0.421389474,19.4126147 0.715452632,20.1684884 C1.01911579,20.9501305 1.42534737,21.6130358 2.08623158,22.2734147 C2.74661053,22.9342989 3.40951579,23.3405305 4.19065263,23.6441937 C4.94652632,23.9377516 5.81052632,24.1388463 7.07570526,24.1964463 C8.34290526,24.2545516 8.74762105,24.2681937 11.9752421,24.2681937 C15.2028632,24.2681937 15.6070737,24.2545516 16.8747789,24.1964463 C18.1394526,24.1388463 19.0034526,23.9377516 19.7593263,23.6441937 C20.5409684,23.3405305 21.2038737,22.9342989 21.8642526,22.2734147 C22.5251368,21.6130358 22.9313684,20.9501305 23.2345263,20.1684884 C23.5285895,19.4126147 23.7296842,18.54912 23.7872842,17.2839411 C23.8448842,16.0162358 23.8590316,15.6120253 23.8590316,12.3844042 C23.8590316,9.15678316 23.8448842,8.75257263 23.7872842,7.48486737 C23.7296842,6.21968842 23.5285895,5.35619368 23.2345263,4.60032 C22.9313684,3.81867789 22.5251368,3.15577263 21.8642526,2.49539368 C21.2038737,1.83450947 20.5409684,1.42827789 19.7593263,1.12461474 C19.0034526,0.831056842 18.1394526,0.629962105 16.8747789,0.572362105 C15.6070737,0.514256842 15.2028632,0.500614737 11.9752421,0.500614737 M11.9752421,2.64192 C15.1477895,2.64192 15.5237053,2.65404632 16.7772632,2.71114105 C17.9358316,2.76419368 18.5648842,2.95770947 18.9837474,3.12040421 C19.5385263,3.33615158 19.9341474,3.59383579 20.3499789,4.00916211 C20.7658105,4.42549895 21.0234947,4.82112 21.2392421,5.37539368 C21.4014316,5.79476211 21.5954526,6.42381474 21.6485053,7.58238316 C21.7056,8.83543579 21.7172211,9.21135158 21.7172211,12.3844042 C21.7172211,15.5574568 21.7056,15.9333726 21.6485053,17.1864253 C21.5954526,18.3449937 21.4014316,18.9745516 21.2392421,19.3929095 C21.0234947,19.9476884 20.7658105,20.3433095 20.3499789,20.7596463 C19.9341474,21.1749726 19.5385263,21.4326568 18.9837474,21.6484042 C18.5648842,21.8110989 17.9358316,22.00512 16.7772632,22.0576674 C15.5237053,22.1147621 15.1482947,22.1268884 11.9752421,22.1268884 C8.80168421,22.1268884 8.42627368,22.1147621 7.17322105,22.0576674 C6.01465263,22.00512 5.38509474,21.8110989 4.96623158,21.6484042 C4.41195789,21.4326568 4.01583158,21.1749726 3.6,20.7596463 C3.18416842,20.3433095 2.92648421,19.9476884 2.71124211,19.3929095 C2.54854737,18.9745516 2.35452632,18.3449937 2.30197895,17.1864253 C2.24488421,15.9333726 2.23275789,15.5574568 2.23275789,12.3844042 C2.23275789,9.21135158 2.24488421,8.83543579 2.30197895,7.58238316 C2.35452632,6.42381474 2.54854737,5.79476211 2.71124211,5.37539368 C2.92648421,4.82112 3.18416842,4.42549895 3.6,4.00916211 C4.01583158,3.59383579 4.41195789,3.33615158 4.96623158,3.12040421 C5.38509474,2.95770947 6.01465263,2.76419368 7.17322105,2.71114105 C8.42627368,2.65404632 8.80218947,2.64192 11.9752421,2.64192" id="Fill-5"></path>
                                            <path d="M11.9752421,16.3455663 C9.78745263,16.3455663 8.01397895,14.5720926 8.01397895,12.3843032 C8.01397895,10.1965137 9.78745263,8.42304 11.9752421,8.42304 C14.1630316,8.42304 15.9365053,10.1965137 15.9365053,12.3843032 C15.9365053,14.5720926 14.1630316,16.3455663 11.9752421,16.3455663 M11.9752421,6.28224 C8.60513684,6.28224 5.87267368,9.01419789 5.87267368,12.3843032 C5.87267368,15.7549137 8.60513684,18.4868716 11.9752421,18.4868716 C15.3453474,18.4868716 18.0773053,15.7549137 18.0773053,12.3843032 C18.0773053,9.01419789 15.3453474,6.28224 11.9752421,6.28224" id="Fill-7"></path>
                                            <path d="M19.7446232,6.04097684 C19.7446232,6.82868211 19.1059705,7.46682947 18.3187705,7.46682947 C17.5310653,7.46682947 16.8924126,6.82868211 16.8924126,6.04097684 C16.8924126,5.25327158 17.5310653,4.61461895 18.3187705,4.61461895 C19.1059705,4.61461895 19.7446232,5.25327158 19.7446232,6.04097684" id="Fill-9"></path>
                                        </g>
                                    </g>
                                </g>
                            </g>
                        </g>
                    </g>
                </g>
            </g>
        </g>
    </g>
</svg>