<?xml version="1.0" encoding="UTF-8"?>
<svg width="50px" height="50px" viewBox="0 0 50 50" version="1.1" xmlns="http://www.w3.org/2000/svg" xmlns:xlink="http://www.w3.org/1999/xlink">
    <!-- Generator: Sketch 51.2 (57519) - http://www.bohemiancoding.com/sketch -->
    <title>Group 6</title>
    <desc>Created with Sketch.</desc>
    <defs>
        <circle id="path-1" cx="21" cy="21" r="21"></circle>
    </defs>
    <g id="PDP" stroke="none" stroke-width="1" fill="none" fill-rule="evenodd">
        <g transform="translate(-880.000000, -4128.000000)" id="footer-1440-MC">
            <g transform="translate(0.000000, 3631.000000)">
                <g id="footer">
                    <g id="footer-linha3" transform="translate(0.000000, 462.000000)">
                        <g id="centauro-redes" transform="translate(569.000000, 39.000000)">
                            <g id="social" transform="translate(233.000000, 0.000000)">
                                <g id="Page-1">
                                    <g id="Group-6" transform="translate(82.000000, 0.000000)">
                                        <g id="Oval">
                                            <circle stroke="#7C051F" stroke-width="4" fill="#7C051F" fill-rule="evenodd" cx="21" cy="21" r="23"></circle>
                                            <circle stroke="#BE0F34" stroke-width="3" cx="21" cy="21" r="22.5"></circle>
                                        </g>
                                        <g id="Page-1" transform="translate(10.000000, 7.000000)" fill="#EFEBE3">
                                            <path d="M14.9443368,11.0102568 C15.3586526,11.0102568 15.9336421,10.7950147 16.5283368,10.0901726 L16.5283368,10.9036463 L17.8970947,10.9036463 L17.8970947,3.53741474 L16.5283368,3.53741474 L16.5283368,9.12764632 C16.3605895,9.33733053 15.9892211,9.67989895 15.7224421,9.67989895 C15.4283789,9.67989895 15.3576421,9.48082526 15.3576421,9.18474105 L15.3576421,3.53640421 L13.9873684,3.53640421 L13.9873684,9.69455158 C13.9873684,10.4216253 14.2101895,11.0102568 14.9443368,11.0102568" id="Fill-5"></path>
                                            <path d="M10.2590316,5.57670737 C10.2590316,5.17300211 10.4454737,4.87388632 10.8299789,4.87388632 C11.2498526,4.87388632 11.4292211,5.16441263 11.4292211,5.57670737 L11.4292211,9.00390737 C11.4292211,9.40508632 11.2256,9.70117053 10.8567579,9.70117053 C10.4783158,9.70117053 10.2590316,9.39194947 10.2590316,9.00390737 L10.2590316,5.57670737 Z M8.84884211,9.06554947 C8.84884211,10.3640758 9.52842105,11.0401179 10.8567579,11.0401179 C11.9582316,11.0401179 12.8252632,10.3039495 12.8252632,9.06554947 L12.8252632,5.45594947 C12.8252632,4.30243368 11.9668211,3.47632842 10.8567579,3.47632842 C9.64917895,3.47632842 8.84884211,4.27312842 8.84884211,5.45594947 L8.84884211,9.06554947 Z" id="Fill-7"></path>
                                            <polygon id="Fill-9" points="5.58165895 10.9036968 7.12473263 10.9036968 7.12473263 6.85249684 8.91892211 0.916665263 7.35260632 0.916665263 6.36431158 4.90824421 5.30022737 0.916665263 3.74755368 0.916665263 5.58165895 6.85249684"></polygon>
                                            <path d="M20.8165053,21.1007158 L18.3215158,21.1007158 L18.3215158,22.424 C18.3215158,22.9504842 18.3659789,23.4052211 18.8909474,23.4052211 C19.4421895,23.4052211 19.4740211,23.0348632 19.4740211,22.424 L19.4740211,21.9364211 L20.8165053,21.9364211 L20.8165053,22.4639158 C20.8165053,23.8149895 20.2359579,24.6345263 18.8611368,24.6345263 C17.6156632,24.6345263 16.9790316,23.7265684 16.9790316,22.4639158 L16.9790316,19.3151158 C16.9790316,18.0959158 17.7829053,17.2516211 18.9596632,17.2516211 C20.2112,17.2516211 20.8165053,18.0458947 20.8165053,19.3151158 L20.8165053,21.1007158 Z M15.9947789,22.9904 C15.9947789,23.8584421 15.6698947,24.5324632 14.8023579,24.5324632 C14.3243789,24.5324632 13.9267368,24.3581474 13.5634526,23.9049263 L13.5634526,24.4435368 L12.2467368,24.4435368 L12.2467368,14.9324632 L13.5634526,14.9324632 L13.5634526,17.9953684 C13.8570105,17.6361263 14.2571789,17.3400421 14.7225263,17.3400421 C15.6779789,17.3400421 15.9947789,18.1469474 15.9947789,19.0978526 L15.9947789,22.9904 Z M10.9739789,24.4435368 L9.66938947,24.4435368 L9.66938947,23.6699789 C9.42888421,23.9549474 9.17827368,24.1722105 8.91907368,24.3217684 C8.21625263,24.7244632 7.25069474,24.7163789 7.25069474,23.2920421 L7.25069474,17.4284632 L8.55528421,17.4284632 L8.55528421,22.8054737 C8.55528421,23.0884211 8.624,23.2789053 8.9024,23.2789053 C9.15604211,23.2789053 9.51073684,22.9530105 9.66938947,22.7534316 L9.66938947,17.4284632 L10.9739789,17.4284632 L10.9739789,24.4435368 Z M5.74905263,24.4435368 L4.28025263,24.4435368 L4.28025263,16.3133474 L2.75991579,16.3133474 L2.75991579,14.9324632 L7.26888421,14.9324632 L7.26888421,16.3133474 L5.74905263,16.3133474 L5.74905263,24.4435368 Z M19.7413053,12.5794526 L3.59764211,12.5794526 C1.86307368,12.5794526 0.457431579,13.9861053 0.457431579,15.7211789 L0.457431579,23.6548211 C0.457431579,25.3888842 1.86307368,26.7950316 3.59764211,26.7950316 L19.7413053,26.7950316 C21.4758737,26.7950316 22.8815158,25.3888842 22.8815158,23.6548211 L22.8815158,15.7211789 C22.8815158,13.9861053 21.4758737,12.5794526 19.7413053,12.5794526 Z" id="Fill-11"></path>
                                            <path d="M18.9045389,18.4796632 C18.4210021,18.4796632 18.3214653,18.8197053 18.3214653,19.3017263 L18.3214653,20.0111158 L19.4739705,20.0111158 L19.4739705,19.3017263 C19.4739705,18.8267789 19.3724126,18.4796632 18.9045389,18.4796632" id="Fill-13"></path>
                                            <path d="M13.8324042,18.5226105 C13.7404463,18.5696 13.6520253,18.6398316 13.5630989,18.7368421 L13.5630989,23.1078737 C13.6697095,23.2225684 13.7727832,23.3054316 13.87232,23.3549474 C14.0840253,23.4625684 14.3957726,23.4716632 14.5382568,23.2832 C14.6150568,23.1846737 14.6529516,23.024 14.6529516,22.8001684 L14.6529516,19.1769263 C14.6529516,18.9404632 14.6049516,18.7600842 14.5129937,18.6383158 C14.3558568,18.4296421 14.0607832,18.4074105 13.8324042,18.5226105" id="Fill-15"></path>
                                        </g>
                                    </g>
                                </g>
                            </g>
                        </g>
                    </g>
                </g>
            </g>
        </g>
    </g>
</svg>